# xmcd
#
# Track frame offsets: 
#        150
#        9744
#        21687
#        41458
#        49084
#        63825
#        77185
#        87988
#        101550
#        111018
#        120478
#        130915
#        139937
#        149510
#        161142
#        173637
#        190931
#        208068
#        237964
#        269917
#        293111
#
# Disc length: 4490 seconds
#
# Revision: 0
# Processed by: cddbd v1.5.2PL0 Copyright (c) Steve Scherf et al.
# Submitted via: ExactAudioCopy v1.0b3
#
DISCID=3d118815
DTITLE=The Nashville Waltz Kings - Wonderful Waltzes From Nashville
DYEAR=2006
DGENRE=Country
TTITLE0=Blue Danube (Piano)
TTITLE1=Put Your Little Foot
TTITLE2=Waltz From Sleeping Beauty
TTITLE3=Bicycle Built For Two
TTITLE4=Little Blossum
TTITLE5=Willow Garden
TTITLE6=Down In The Valley
TTITLE7=Beautiful Dreamer
TTITLE8=Home On The Range
TTITLE9=Beautiful Brown Eyes
TTITLE10=Darlin' Clementine
TTITLE11=Poor Rebel Soldier
TTITLE12=Greensleeves
TTITLE13=On Top Of Old Smokey
TTITLE14=After The Ball
TTITLE15=Over the Waves
TTITLE16=Fur Elise
TTITLE17=Waltz Of The Flowers
TTITLE18=Voices Of Spring
TTITLE19=Waltz Medley
TTITLE20=Blue Danube (Big Band)
EXTD=
EXTT0=
EXTT1=
EXTT2=
EXTT3=
EXTT4=
EXTT5=
EXTT6=
EXTT7=
EXTT8=
EXTT9=
EXTT10=
EXTT11=
EXTT12=
EXTT13=
EXTT14=
EXTT15=
EXTT16=
EXTT17=
EXTT18=
EXTT19=
EXTT20=
PLAYORDER=
